<svg width="36" height="36" viewBox="0 0 36 36" fill="none" xmlns="http://www.w3.org/2000/svg">
<circle cx="18" cy="18" r="18" fill="#F7F6F0"/>
<path d="M25.9525 13.9201C25.9647 14.0966 25.9647 14.2728 25.9647 14.4508C25.9647 19.8726 21.837 26.1258 14.2897 26.1258V26.1226C12.06 26.1258 9.87655 25.4871 8 24.283C8.32422 24.322 8.65 24.3416 8.97656 24.3423C10.8245 24.3438 12.6194 23.724 14.0727 22.5825C13.2164 22.5663 12.3866 22.283 11.6993 21.7721C11.012 21.2611 10.5015 20.5482 10.2392 19.733C10.8544 19.8517 11.4881 19.8272 12.0919 19.6622C10.1775 19.2755 8.80031 17.5936 8.80031 15.6403V15.5883C9.37099 15.9062 10.0097 16.0823 10.6627 16.1019C8.85938 14.8969 8.30391 12.4983 9.39266 10.6231C10.4228 11.8907 11.7081 12.9274 13.165 13.666C14.6219 14.4045 16.2179 14.8283 17.8492 14.9098C17.6866 14.2096 17.7107 13.479 17.919 12.7911C18.1274 12.1031 18.5127 11.4819 19.0364 10.9895C20.6891 9.43593 23.2883 9.51561 24.8417 11.1675C25.7607 10.986 26.6419 10.6491 27.4475 10.1712C27.1412 11.1213 26.5002 11.9279 25.6437 12.4408C26.4571 12.3449 27.2515 12.1271 28 11.7947C27.4493 12.6193 26.756 13.3391 25.9525 13.9201Z" fill="#1D9BF0"/>
</svg>
